<?xml version="1.0" encoding="UTF-8"?>
<svg version="1.1" xmlns="http://www.w3.org/2000/svg" width="512" height="512">
<path d="M0 0 C1.89906701 -0.00461352 3.79813045 -0.01096946 5.69718647 -0.01890898 C10.89591875 -0.03556333 16.09435624 -0.02737358 21.29308939 -0.0149641 C26.90735753 -0.00590002 32.5215756 -0.01989009 38.13583374 -0.03088379 C49.12636755 -0.04865905 60.11679201 -0.04483341 71.10733008 -0.03323323 C80.04052613 -0.02419529 88.97369156 -0.02297647 97.90689087 -0.02732849 C99.1788907 -0.02794142 100.45089053 -0.02855436 101.76143581 -0.02918586 C104.3455759 -0.03046478 106.92971598 -0.03176163 109.51385605 -0.03307623 C133.04812046 -0.04415414 156.58231152 -0.03267096 180.1165628 -0.01170584 C201.58742469 0.00727572 223.05819167 0.00557718 244.52905273 -0.0135498 C268.66774667 -0.03498165 292.80637585 -0.04338051 316.94508266 -0.03110075 C319.51965268 -0.02982657 322.0942227 -0.02856909 324.66879272 -0.02732849 C326.56883976 -0.02640284 326.56883976 -0.02640284 328.50727159 -0.02545848 C337.42849554 -0.02200653 346.3496858 -0.02783062 355.27090454 -0.0372467 C366.14467118 -0.04847149 377.01832234 -0.04541644 387.89207578 -0.02412373 C393.43875944 -0.0136199 398.98525064 -0.0094803 404.53193283 -0.02272034 C409.61223184 -0.0346636 414.69216047 -0.02804955 419.77242601 -0.00681013 C421.60740493 -0.0023523 423.44241532 -0.00459186 425.27737391 -0.01431328 C437.11284341 -0.0721928 448.38606452 0.10102187 457.6628418 8.57043457 C458.81913086 9.57783691 458.81913086 9.57783691 459.9987793 10.60559082 C466.56638643 18.93277871 468.02121354 27.15831111 467.91603088 37.53224182 C467.92667246 39.43460819 467.92667246 39.43460819 467.93752903 41.37540621 C467.95632676 44.86597724 467.94428946 48.35584047 467.92680609 51.84639275 C467.91336775 55.62219505 467.92889215 59.39789815 467.94062805 63.1736908 C467.95896053 70.55843567 467.95052209 77.94291509 467.93253983 85.32765157 C467.91848755 91.33132708 467.91462666 97.33493076 467.9179821 103.33862114 C467.91869826 104.62259769 467.91869826 104.62259769 467.9194289 105.93251316 C467.92045527 107.67166899 467.92151063 109.4108248 467.92259466 111.1499806 C467.9311527 126.51162043 467.91451531 141.87313248 467.88476562 157.23474121 C467.85592536 172.1270484 467.84884823 187.01917156 467.86425781 201.91149902 C467.88103304 218.14576341 467.8850411 234.37994053 467.86754745 250.61420721 C467.86570315 252.34649272 467.86386842 254.07877824 467.86204338 255.81106377 C467.86113129 256.66328596 467.8602192 257.51550816 467.85927947 258.39355527 C467.85368268 264.38775713 467.8569732 270.38191626 467.86358833 276.3761158 C467.87133363 283.6842167 467.8645258 290.99213671 467.83941329 298.30020124 C467.82694648 302.02607204 467.82073725 305.7516616 467.83195496 309.47754288 C467.84390206 313.52215812 467.82468284 317.56603891 467.80250549 321.61061096 C467.81074626 322.7801732 467.81898703 323.94973544 467.82747751 325.15473896 C467.72532023 335.26145169 465.30415489 343.30461555 458.27612305 350.75402832 C450.93103142 357.23329383 442.39042224 359.76213722 432.68849182 359.7484436 C431.58921188 359.75100688 431.58921188 359.75100688 430.46772426 359.75362194 C428.02948787 359.75689756 425.59153105 359.74594524 423.15332031 359.73498535 C421.39861559 359.73442082 419.64391039 359.73473862 417.88920593 359.73587036 C413.13766426 359.73644324 408.38622394 359.72469944 403.63470578 359.71072245 C398.66459243 359.69820425 393.69447666 359.69704373 388.72434998 359.69467163 C379.31807982 359.68846007 369.91185625 359.67205361 360.50560659 359.65197265 C349.79465095 359.62960359 339.08369307 359.61861769 328.37271988 359.60858178 C306.3444012 359.58768712 284.31612444 359.55251741 262.2878418 359.50793457 C262.6178418 360.16793457 262.9478418 360.82793457 263.2878418 361.50793457 C263.5824321 363.69908462 263.82496796 365.89729665 264.04394531 368.09729004 C264.11236633 368.77390686 264.18078735 369.45052368 264.25128174 370.14764404 C264.47697877 372.38976776 264.69695678 374.63241232 264.91674805 376.87512207 C265.07197177 378.4321272 265.22748819 379.98910318 265.38328552 381.54605103 C265.70931086 384.81256716 266.03266955 388.07933261 266.35400391 391.34631348 C266.76579707 395.53209857 267.18278107 399.71734547 267.60159397 403.9024334 C267.9231735 407.11931729 268.24268663 410.33640366 268.56150627 413.55356216 C268.71453439 415.09656604 268.86804124 416.63952252 269.0220356 418.18243027 C269.23705992 420.34135915 269.44947191 422.50052915 269.66113281 424.65979004 C269.78247086 425.88841766 269.9038089 427.11704529 270.02882385 428.38290405 C270.2878418 431.50793457 270.2878418 431.50793457 270.2878418 435.50793457 C271.55378174 435.4869873 272.81972168 435.46604004 274.12402344 435.44445801 C278.84086707 435.37181316 283.55766168 435.32604582 288.27490234 435.28820801 C290.31274748 435.26814825 292.35053545 435.24089358 294.38818359 435.20617676 C297.32493227 435.15741024 300.26091697 435.13490916 303.19799805 435.11730957 C304.55466331 435.08634186 304.55466331 435.08634186 305.93873596 435.05474854 C311.92206112 435.05264744 315.3764391 436.04141869 320.2878418 439.50793457 C323.10830478 442.9363169 324.16643921 446.65811644 324.7878418 451.00793457 C324.16643921 455.3577527 323.10830478 459.07955224 320.2878418 462.50793457 C314.92041338 466.16364191 311.16970471 467.09041534 304.74853516 467.01586914 C303.49740511 467.02522908 303.49740511 467.02522908 302.22099972 467.03477812 C299.4396033 467.05067138 296.65908772 467.03811841 293.87768555 467.0255127 C291.87817882 467.03093544 289.87867609 467.03805896 287.87918091 467.04675293 C282.45771085 467.06497093 277.03654565 467.05792493 271.61507034 467.04523659 C265.93819616 467.0351011 260.26134787 467.0445038 254.58447266 467.05078125 C245.05162882 467.05805604 235.51890899 467.04847431 225.98608398 467.02941895 C214.968894 467.0076506 203.95200012 467.01470209 192.93481731 467.03672457 C183.4713497 467.0548833 174.00797117 467.05743454 164.54449177 467.04696989 C158.89426635 467.0407376 153.24418007 467.03989216 147.59396362 467.05311584 C142.28164705 467.06468052 136.96971181 467.05663703 131.65743637 467.03353882 C129.70918282 467.02825507 127.76089711 467.02975977 125.8126564 467.03858948 C123.1503889 467.04954176 120.48933866 467.0357855 117.82714844 467.01586914 C116.67426535 467.02925347 116.67426535 467.02925347 115.4980917 467.04290819 C110.02290887 466.96361224 106.82259634 465.59651521 102.2878418 462.50793457 C99.46737881 459.07955224 98.40924439 455.3577527 97.7878418 451.00793457 C98.40924439 446.65811644 99.46737881 442.9363169 102.2878418 439.50793457 C108.07749729 435.42153931 112.3965227 434.95795512 119.37768555 435.11730957 C120.32221085 435.12296936 121.26673615 435.12862915 122.23988342 435.13446045 C125.23556736 435.15672386 128.23002375 435.20690126 131.2253418 435.25793457 C133.26503798 435.27801255 135.30475304 435.29626104 137.34448242 435.31262207 C142.32607006 435.35655574 147.30674831 435.42551337 152.2878418 435.50793457 C152.33500839 434.91902435 152.38217499 434.33011414 152.43077087 433.72335815 C153.64791461 418.61537198 155.01140542 403.52659419 156.52001953 388.44494629 C156.8577354 385.05880181 157.18903719 381.67206307 157.52026367 378.28527832 C157.73537372 376.1224796 157.9508535 373.95971762 158.16674805 371.79699707 C158.26468155 370.78891998 158.36261505 369.7808429 158.46351624 368.74221802 C158.55708908 367.81879608 158.65066193 366.89537415 158.74707031 365.94396973 C158.86792747 364.72684799 158.86792747 364.72684799 158.9912262 363.48513794 C159.2878418 361.50793457 159.2878418 361.50793457 160.2878418 359.50793457 C159.37969538 359.51069995 158.47154896 359.51346533 157.53588295 359.51631451 C135.41761219 359.58262712 113.29935861 359.63224086 91.18100929 359.66337109 C80.48465017 359.67882636 69.78835749 359.6998903 59.09204102 359.73425293 C49.76689114 359.76419626 40.44178939 359.78351931 31.11659276 359.79020005 C26.18100676 359.79410394 21.24555843 359.80325075 16.31001663 359.82512474 C11.65941859 359.84556785 7.00901425 359.8517526 2.35837555 359.84725761 C0.6564796 359.84807932 -1.04542319 359.85399819 -2.74728012 359.86555099 C-14.77033927 359.94312766 -25.07899559 359.55081555 -34.66918945 351.53918457 C-39.65199478 346.5849613 -44.26574193 340.05658138 -44.9674592 332.906609 C-44.9699522 331.97026829 -44.97244519 331.03392758 -44.97501373 330.06921291 C-44.98269602 328.98332203 -44.99037831 327.89743115 -44.9982934 326.77863449 C-44.99656044 325.59129921 -44.99482747 324.40396394 -44.99304199 323.1806488 C-44.99898424 321.91485869 -45.00492648 320.64906857 -45.01104879 319.34492117 C-45.02716405 315.83347945 -45.03076654 312.32211955 -45.03224373 308.81064522 C-45.03594926 305.02244323 -45.05104634 301.23428348 -45.06451416 297.44610596 C-45.09166591 289.16280852 -45.10372837 280.87953047 -45.11253548 272.59619594 C-45.11806379 267.42152863 -45.12653922 262.24686877 -45.13554382 257.0722065 C-45.15992899 242.73845228 -45.1805265 228.40470404 -45.18729401 214.07092953 C-45.18773314 213.15369678 -45.18817227 212.23646403 -45.18862471 211.29143635 C-45.18906127 210.37203354 -45.18949782 209.45263072 -45.18994761 208.50536722 C-45.19083453 206.64237209 -45.19172766 204.77937696 -45.19262695 202.91638184 C-45.19306981 201.99227587 -45.19351267 201.06816991 -45.19396895 200.11606074 C-45.20186048 185.15115327 -45.23675489 170.18644085 -45.283346 155.22160869 C-45.33082021 139.848696 -45.35569991 124.47588106 -45.35802984 109.10289389 C-45.35986092 100.47508819 -45.37130353 91.84753652 -45.40766907 83.21980095 C-45.43853528 75.87096732 -45.44867474 68.5224662 -45.43219286 61.17358004 C-45.42440154 57.42709006 -45.42612933 53.68126896 -45.45430756 49.93486214 C-45.4846437 45.8641319 -45.46798895 41.79489565 -45.44714355 37.72410583 C-45.46325636 36.55238561 -45.47936917 35.38066539 -45.49597025 34.17343849 C-45.37153256 23.74851335 -41.92520178 15.42254405 -34.5246582 8.00793457 C-24.8228536 -0.71794886 -12.17189623 -0.06448547 0 0 Z " fill="#FED07B" transform="translate(44.712158203125,22.4920654296875)"/>
<path d="M0 0 C2.26760335 0.00112948 4.53520816 0.00049265 6.80281067 -0.00177002 C12.93432454 -0.00291415 19.06552318 0.02054672 25.19696403 0.04852581 C31.61378094 0.07358953 38.03060568 0.07588539 44.44746399 0.08062744 C55.20983339 0.09163347 65.97206551 0.11659089 76.734375 0.15234375 C87.81477293 0.18911482 98.89513935 0.21735563 109.97558594 0.234375 C110.66666366 0.23544699 111.35774139 0.23651898 112.06976086 0.23762345 C118.08206435 0.24687606 124.09436871 0.25548668 130.10667324 0.26403427 C155.95053694 0.30160687 181.79409538 0.3813077 207.63793945 0.45410156 C207.63793945 38.40410156 207.63793945 76.35410156 207.63793945 115.45410156 C204.66793945 116.44410156 201.69793945 117.43410156 198.63793945 118.45410156 C195.70357613 120.70378011 193.24091418 122.86452121 190.63793945 125.45410156 C189.9420874 126.13956055 189.9420874 126.13956055 189.23217773 126.83886719 C185.33570089 130.67930649 181.48355656 134.5628327 177.63793945 138.45410156 C175.37015088 140.74881131 173.09884237 143.03995532 170.82543945 145.32910156 C170.07194214 146.09504639 170.07194214 146.09504639 169.30322266 146.87646484 C166.52921817 149.66901396 163.67987188 152.31254026 160.69702148 154.88183594 C156.74478873 158.30401006 153.11656727 161.95960233 149.50512695 165.73535156 C148.19222897 167.08518984 146.87840012 168.43412326 145.5637207 169.78222656 C143.52299383 171.87877579 141.48829121 173.97993306 139.46850586 176.09667969 C137.49667678 178.1591076 135.50343727 180.19861523 133.50512695 182.23535156 C132.90497772 182.87476685 132.30482849 183.51418213 131.68649292 184.17297363 C127.46702299 188.42004018 127.46702299 188.42004018 123.74389648 188.57299805 C119.76329056 187.13901621 115.91745802 185.54136024 112.07543945 183.77050781 C110.83467651 183.20891212 110.83467651 183.20891212 109.56884766 182.63597107 C106.92214111 181.43614298 104.28001608 180.22658556 101.63793945 179.01660156 C99.92469321 178.23795643 98.21115365 177.45995634 96.49731445 176.68261719 C93.03191621 175.10934704 89.56846698 173.53190451 86.10668945 171.95068359 C80.18305043 169.24501925 74.25444527 166.55032459 68.32543945 163.85644531 C66.45434455 163.00610604 64.5832507 162.15576448 62.7121582 161.30541992 C61.3540901 160.68830321 59.99601919 160.07119268 58.63793945 159.45410156 C58.63429382 158.40253876 58.63064819 157.35097595 58.62689209 156.26754761 C58.58992766 146.35055071 58.53213908 136.43386392 58.45403671 126.5171032 C58.4145519 121.41894124 58.38236829 116.32095228 58.36694336 111.22265625 C58.35178348 106.3011536 58.31734961 101.38012649 58.26963043 96.4588356 C58.25480977 94.58264426 58.24689805 92.70638503 58.2460556 90.83013535 C58.24368625 88.19890582 58.21660989 85.5689908 58.18383789 82.93798828 C58.18886826 82.16474716 58.19389862 81.39150604 58.19908142 80.59483337 C58.09930994 75.40682464 56.89625484 72.46298625 53.63793945 68.45410156 C49.94843644 65.29167041 46.55625599 64.92659528 41.84887695 65.10644531 C37.09882589 65.85336147 34.44556958 68.46560879 31.50129604 72.06923008 C29.25564536 76.14855607 29.08114104 79.4540977 29.13673401 83.98704529 C29.13119961 84.83252822 29.12566522 85.67801114 29.11996311 86.54911476 C29.10637721 89.37508547 29.1213146 92.20016983 29.13623047 95.02612305 C29.13244652 97.05503718 29.12694585 99.08394873 29.11985779 101.112854 C29.10589504 106.6191013 29.11707927 112.12503639 29.133569 117.63126636 C29.14742057 123.39489153 29.14095922 129.15849859 29.13743591 134.9221344 C29.13473367 144.6021935 29.14820999 154.28212861 29.17138672 163.9621582 C29.19798897 175.15026764 29.19974595 186.33816967 29.18799835 197.52629989 C29.17721466 208.29153242 29.1834128 219.05669 29.19755363 229.82191658 C29.20330903 234.40190467 29.20323422 238.98183782 29.19848824 243.56182671 C29.19371186 248.95697751 29.20384771 254.35190158 29.22544289 259.74700928 C29.23100217 261.72589923 29.23148394 263.70481101 29.22649002 265.68370247 C29.22052316 268.38744372 29.23306928 271.09049503 29.2502594 273.79417419 C29.24424935 274.57511788 29.23823931 275.35606157 29.23204714 276.16067022 C29.291386 281.30223548 30.23239727 284.88514159 32.63793945 289.45410156 C37.32450263 293.79774548 39.94745758 294.57941201 46.25637817 294.61231995 C47.28799664 294.61972691 47.28799664 294.61972691 48.34045589 294.62728351 C50.65592316 294.64269972 52.97136262 294.65103024 55.28686523 294.65942383 C56.94231411 294.66899912 58.59776053 294.67900899 60.25320435 294.68942261 C64.75705879 294.71651559 69.26092375 294.73750132 73.76481485 294.75742459 C78.4680566 294.7792571 83.17126574 294.80665914 87.8744812 294.83348083 C96.78505415 294.88344479 105.69564516 294.92836986 114.6062535 294.9715032 C124.74881282 295.02084397 134.89133942 295.0757738 145.03386712 295.13118279 C165.90186225 295.24505967 186.76988738 295.35114836 207.63793945 295.45410156 C207.63793945 316.24410156 207.63793945 337.03410156 207.63793945 358.45410156 C165.19622639 359.49355888 122.77484999 359.67358182 80.32251298 359.69292974 C70.06028068 359.69768846 59.79817771 359.71542038 49.53598446 359.74399686 C41.48815475 359.76561338 33.44036174 359.77569928 25.39250332 359.77703738 C20.62871198 359.77807839 15.86504593 359.78384425 11.10128593 359.80185699 C6.65929412 359.81835433 2.21752238 359.82048537 -2.22448921 359.81171799 C-3.84418328 359.81095059 -5.46388948 359.8152508 -7.08355331 359.82517624 C-18.86657352 359.89314369 -28.93403295 359.32561311 -38.3190918 351.48535156 C-43.30189713 346.53112829 -47.91564427 340.00274837 -48.61736155 332.85277599 C-48.61985454 331.91643528 -48.62234754 330.98009457 -48.62491608 330.01537991 C-48.63259837 328.92948903 -48.64028066 327.84359815 -48.64819574 326.72480148 C-48.64646278 325.5374662 -48.64472981 324.35013093 -48.64294434 323.1268158 C-48.64888658 321.86102568 -48.65482882 320.59523556 -48.66095114 319.29108816 C-48.6770664 315.77964644 -48.68066889 312.26828654 -48.68214607 308.75681221 C-48.68585161 304.96861022 -48.70094869 301.18045047 -48.7144165 297.39227295 C-48.74156826 289.10897551 -48.75363072 280.82569746 -48.76243782 272.54236293 C-48.76796613 267.36769562 -48.77644156 262.19303576 -48.78544617 257.01837349 C-48.80983134 242.68461928 -48.83042884 228.35087103 -48.83719635 214.01709652 C-48.83763548 213.09986377 -48.83807461 212.18263102 -48.83852705 211.23760334 C-48.83896361 210.31820053 -48.83940016 209.39879772 -48.83984995 208.45153421 C-48.84073687 206.58853908 -48.84163 204.72554395 -48.8425293 202.86254883 C-48.84297216 201.93844287 -48.84341502 201.01433691 -48.8438713 200.06222773 C-48.85176282 185.09732027 -48.88665723 170.13260785 -48.93324834 155.16777568 C-48.98072255 139.79486299 -49.00560225 124.42204805 -49.00793219 109.04906088 C-49.00976326 100.42125518 -49.02120588 91.79370351 -49.05757141 83.16596794 C-49.08843762 75.81713432 -49.09857708 68.46863319 -49.08209521 61.11974704 C-49.07430389 57.37325705 -49.07603167 53.62743595 -49.1042099 49.88102913 C-49.13454605 45.81029889 -49.11789129 41.74106264 -49.0970459 37.67027283 C-49.11315871 36.4985526 -49.12927152 35.32683238 -49.14587259 34.11960548 C-49.0214349 23.69468034 -45.57510413 15.36871104 -38.17456055 7.95410156 C-27.58789352 -1.56763447 -13.22305786 -0.09231416 0 0 Z " fill="#FEE8CA" transform="translate(48.362060546875,22.5458984375)"/>
<path d="M0 0 C4.89537092 2.40150271 7.37217563 5.27262451 10 10 C10.36987761 12.79645389 10.5257473 15.18670852 10.48101807 17.97262573 C10.48443577 18.75771078 10.48785347 19.54279583 10.49137473 20.35167134 C10.49794461 22.97294175 10.47599304 25.59317998 10.45410156 28.21435547 C10.45297289 30.0969897 10.45360733 31.9796257 10.45587158 33.86225891 C10.45701888 38.96726724 10.43350687 44.07189935 10.40557575 49.17682028 C10.38056481 54.51394841 10.37822033 59.85108524 10.37347412 65.18826294 C10.36104347 75.29232174 10.32822054 85.39620735 10.28807616 95.5001899 C10.24336133 107.00431788 10.22137212 118.50845414 10.20129442 130.01264739 C10.15948808 153.67519426 10.08913417 177.33758743 10 201 C10.67022031 200.9981014 11.34044062 200.9962028 12.03097063 200.99424666 C51.74611353 200.88237709 91.46123612 200.79657777 131.17650465 200.74467335 C135.9442488 200.73841976 140.71199265 200.73194815 145.47973633 200.7253418 C146.42891565 200.72403024 147.37809498 200.72271869 148.35603731 200.7213674 C163.72875788 200.69960576 179.10138503 200.66018005 194.47405017 200.61423602 C210.24566122 200.56749249 226.01722332 200.53970905 241.78890079 200.52955753 C251.52236059 200.522694 261.25555638 200.50100966 270.98893493 200.46041767 C277.661814 200.43400527 284.33455641 200.42599559 291.00748397 200.43249311 C294.85856404 200.43569838 298.70918249 200.43075576 302.56018066 200.40397263 C306.73565916 200.37514484 310.91015335 200.38505337 315.08570862 200.39872742 C316.30264029 200.38416321 317.51957195 200.369599 318.77338034 200.35459346 C325.87823929 200.41765247 329.7549851 201.07528813 335 206 C337.94937259 210.37648836 338.56051797 213.76849896 338 219 C336.10672504 224.2590971 333.40216785 226.79008594 329 230 C325.87200959 231.04266347 323.69791595 231.12842759 320.41579723 231.13422108 C318.66198153 231.14090784 318.66198153 231.14090784 316.8727352 231.14772969 C315.58209877 231.14754533 314.29146233 231.14736097 312.9617157 231.14717102 C311.58159351 231.15046981 310.20147229 231.1541954 308.8213523 231.1583125 C305.02018534 231.16833873 301.21903417 231.17205028 297.41785586 231.17470181 C293.32163421 231.17860294 289.22542509 231.18818132 285.12921143 231.19691467 C275.23342866 231.21668307 265.33764487 231.22674514 255.44184729 231.23564246 C250.78390655 231.24002419 246.12596695 231.24539125 241.46802711 231.25063133 C225.98827062 231.26764294 210.50851483 231.2821382 195.02875042 231.28938007 C191.0111103 231.29129002 186.99347018 231.29321035 182.97583008 231.29516602 C181.47795171 231.29589163 181.47795171 231.29589163 179.94981316 231.2966319 C163.76507295 231.30493629 147.58040654 231.33028042 131.39569857 231.36274669 C114.78665086 231.39579316 98.17764071 231.41382659 81.56855994 231.41702431 C72.24009964 231.4191915 62.91174702 231.42797076 53.58331871 231.45348549 C45.64070614 231.47515945 37.6982274 231.48325919 29.75558861 231.47351871 C25.70216145 231.46896456 21.64901062 231.47092464 17.59562111 231.49028015 C13.8851707 231.50784534 10.17519957 231.50696875 6.46474455 231.49138286 C4.48597322 231.48786581 2.50719725 231.50408249 0.52849501 231.52098733 C-10.18074837 231.44291406 -10.18074837 231.44291406 -15 227 C-20.10539244 221.48065682 -20.14887065 216.98086419 -20.14717102 209.70083618 C-20.15084771 208.85635654 -20.1545244 208.0118769 -20.1583125 207.14180696 C-20.16933969 204.30758521 -20.1731915 201.47340014 -20.17700195 198.63916016 C-20.18326718 196.60892114 -20.18991403 194.57868327 -20.19691467 192.54844666 C-20.21794502 185.87866005 -20.22831399 179.20887323 -20.23828125 172.5390625 C-20.24232876 170.24352379 -20.24644568 167.94798521 -20.25063133 165.65244675 C-20.26967831 154.87121509 -20.28391212 144.08999027 -20.2922433 133.30874503 C-20.30202359 120.85763336 -20.32836592 108.4066991 -20.36874419 95.95564997 C-20.39887714 86.33432221 -20.41370938 76.71304539 -20.41702431 67.09167135 C-20.41937742 61.34359261 -20.42837236 55.59570351 -20.45348549 49.84767532 C-20.47672266 44.44188128 -20.48101692 39.03640235 -20.47072411 33.63057137 C-20.47022763 31.64640697 -20.476581 29.66222729 -20.49028015 27.67811012 C-20.50793629 24.96940431 -20.50092407 22.26183716 -20.48774719 19.5531311 C-20.49871644 18.76791033 -20.50968568 17.98268956 -20.52098733 17.17367423 C-20.45970405 11.95626469 -19.28848123 9.02272852 -16 5 C-10.66515647 0.30025689 -7.03248205 -0.84200038 0 0 Z " fill="#FDBF01" transform="translate(97,87)"/>
<path d="M0 0 C1.23843658 0.00411644 1.23843658 0.00411644 2.50189209 0.00831604 C5.21019862 0.0229258 7.91706222 0.06706584 10.625 0.11328125 C12.50291777 0.13300573 14.3808483 0.15154723 16.25878906 0.16894531 C20.12531512 0.20958967 23.99125913 0.26486828 27.85742188 0.33154297 C32.50505384 0.4115163 37.15227374 0.46094526 41.80041504 0.49885559 C45.18916381 0.53063251 48.57741139 0.58124849 51.96582031 0.63833618 C53.56209502 0.66314654 55.15846958 0.68224118 56.75488281 0.69540405 C58.97803978 0.71664758 61.19928505 0.76313463 63.421875 0.81640625 C65.29891113 0.84782715 65.29891113 0.84782715 67.21386719 0.87988281 C72.42035285 1.71309938 75.505616 4.15512914 78.9375 8.05078125 C81.94761134 12.28723425 81.77772682 15.61831158 81.75 20.67578125 C81.74734131 21.56821533 81.74468262 22.46064941 81.74194336 23.38012695 C81.67901092 33.12668906 81.4347248 42.86999665 81.1875 52.61328125 C81.1679425 53.40827026 81.14838501 54.20325928 81.12823486 55.02233887 C81.01100038 59.70328425 80.87297232 64.38294814 80.70733643 69.06243896 C80.65113453 70.67562926 80.59902596 72.28896607 80.55047607 73.90240479 C80.47381322 76.34456177 80.37795328 78.78528753 80.27734375 81.2265625 C80.25700577 81.9621489 80.23666779 82.69773529 80.2157135 83.45561218 C79.93476928 89.45196788 78.56437104 93.63186304 74.125 97.73828125 C69.83743879 100.63238507 65.67940513 101.06687308 60.625 100.42578125 C56.3818273 99.08268021 53.57639095 96.92567845 51.44140625 93.0078125 C48.90670369 87.65029011 49.1482659 82.43446756 49.3125 76.61328125 C49.32216797 75.59685547 49.33183594 74.58042969 49.34179688 73.53320312 C49.44058784 66.79394093 49.92100976 60.12733812 50.625 53.42578125 C49.965 53.42578125 49.305 53.42578125 48.625 53.42578125 C48.625 54.08578125 48.625 54.74578125 48.625 55.42578125 C47.33203125 56.6953125 47.33203125 56.6953125 45.4375 58.23828125 C41.4552311 61.61224619 37.78598361 65.2130933 34.125 68.92578125 C30.13785796 72.95934465 26.10999126 76.81985645 21.78125 80.48828125 C18.17491501 83.72875616 14.8146575 87.21691764 11.40673828 90.66357422 C7.94835643 94.14607731 4.40977557 97.44041965 0.65625 100.60546875 C-2.97605702 103.86057465 -6.30140377 107.44235764 -9.6640625 110.97265625 C-14.75327785 115.57788282 -18.92135629 116.92207324 -25.65603638 116.82296753 C-30.59275446 116.10181162 -34.17882581 113.41690235 -38.203125 110.609375 C-39.10744263 110.00538879 -40.01176025 109.40140259 -40.94348145 108.77911377 C-43.85248713 106.82864562 -46.73846886 104.84682059 -49.625 102.86328125 C-51.60834386 101.52443663 -53.59304757 100.18760428 -55.57910156 98.8527832 C-60.35646629 95.63470339 -65.11644133 92.39208242 -69.86962891 89.13842773 C-73.29027072 86.80011139 -76.72257724 84.4792726 -80.15625 82.16015625 C-84.91329509 78.94014404 -89.6526286 75.69641886 -94.375 72.42578125 C-98.27094292 74.01925566 -100.71634174 76.53224904 -103.65917969 79.4987793 C-104.17360626 80.01452011 -104.68803284 80.53026093 -105.2180481 81.06163025 C-106.91563616 82.76570164 -108.60613214 84.47663912 -110.296875 86.1875 C-111.48217405 87.37907531 -112.66799362 88.57013303 -113.85430908 89.76069641 C-116.9790379 92.89872689 -120.09816159 96.04226493 -123.21569824 99.18743896 C-128.18954908 104.20437891 -133.16998888 109.21475283 -138.15390778 114.22168922 C-139.88441977 115.96232564 -141.61141726 117.70639155 -143.33807373 119.45085144 C-148.32874584 124.47926139 -153.3255552 129.44194985 -158.75152588 134.00788879 C-160.46057939 135.50052366 -162.00192541 137.09209823 -163.5625 138.73828125 C-167.25494754 142.26662001 -169.52570418 143.29340674 -174.57763672 143.6550293 C-178.81469071 143.39923698 -181.94106503 142.20111626 -185.6953125 140.3828125 C-186.72905251 139.90240509 -186.72905251 139.90240509 -187.78367615 139.41229248 C-190.02826878 138.36624131 -192.2638749 137.30229564 -194.5 136.23828125 C-196.05390692 135.51079306 -197.60852179 134.78481524 -199.16381836 134.06030273 C-201.54455923 132.95102221 -203.92479978 131.84078896 -206.30278015 130.7256012 C-214.13912217 127.05194459 -222.03178473 123.50953052 -229.9375 119.98828125 C-232.31410872 118.92776806 -234.69028381 117.86629033 -237.06640625 116.8046875 C-238.04810791 116.36713135 -239.02980957 115.9295752 -240.04125977 115.47875977 C-241.49828726 114.82135213 -242.94528285 114.14063983 -244.375 113.42578125 C-244.375 102.53578125 -244.375 91.64578125 -244.375 80.42578125 C-234.26100519 83.79711285 -234.26100519 83.79711285 -229.3203125 86.140625 C-228.22340088 86.6567334 -227.12648926 87.1728418 -225.99633789 87.70458984 C-224.84254639 88.25195801 -223.68875488 88.79932617 -222.5 89.36328125 C-220.02369413 90.52417591 -217.54498678 91.67990883 -215.06640625 92.8359375 C-214.43602951 93.13036743 -213.80565277 93.42479736 -213.15617371 93.72814941 C-211.22942639 94.62802755 -209.30232243 95.52713557 -207.375 96.42578125 C-206.73761902 96.72297058 -206.10023804 97.02015991 -205.44354248 97.32635498 C-201.11799551 99.33980374 -196.78039865 101.32503813 -192.4375 103.30078125 C-191.30135254 103.83050537 -190.16520508 104.36022949 -188.99462891 104.90600586 C-187.93550293 105.38432861 -186.87637695 105.86265137 -185.78515625 106.35546875 C-184.39502319 106.99331299 -184.39502319 106.99331299 -182.97680664 107.64404297 C-179.89922965 108.56873111 -178.43835946 108.32102522 -175.375 107.42578125 C-173.43303728 106.04935276 -173.43303728 106.04935276 -171.72143555 104.21044922 C-171.04690842 103.53239227 -170.37238129 102.85433533 -169.67741394 102.1557312 C-168.60539482 101.04803879 -168.60539482 101.04803879 -167.51171875 99.91796875 C-166.7609053 99.15912384 -166.01009186 98.40027893 -165.23652649 97.61843872 C-162.83556267 95.18848419 -160.44858823 92.74533671 -158.0625 90.30078125 C-155.68465889 87.88021576 -153.30395466 85.46253889 -150.92060852 83.0473938 C-149.43977569 81.54514149 -147.96248573 80.0393853 -146.48942566 78.5295105 C-142.55645082 74.52186314 -138.51437216 70.74575738 -134.25898743 67.08343506 C-131.38922231 64.55843037 -128.71873978 61.85620645 -126.046875 59.125 C-124.90637861 57.971878 -123.76574989 56.81888686 -122.625 55.66601562 C-120.86331361 53.87939505 -119.10330396 52.09117737 -117.34570312 50.30053711 C-115.62547729 48.55013604 -113.89910188 46.8059891 -112.171875 45.0625 C-111.64889832 44.52606369 -111.12592163 43.98962738 -110.58709717 43.43693542 C-106.49270729 39.31456519 -103.53058087 37.14823677 -97.6875 36.98828125 C-96.89988281 36.94832031 -96.11226562 36.90835938 -95.30078125 36.8671875 C-87.65778098 38.3263985 -80.70990428 44.07565595 -74.37890625 48.3984375 C-73.54648911 48.96219589 -72.71407196 49.52595428 -71.85643005 50.10679626 C-69.21438597 51.89711567 -66.57581952 53.69247883 -63.9375 55.48828125 C-61.34057666 57.25123426 -58.74292278 59.01310612 -56.14511108 60.77474976 C-54.43342503 61.9354892 -52.72201704 63.09663881 -51.01089478 64.25820923 C-42.49940062 70.03155184 -33.94231223 75.73571173 -25.375 81.42578125 C-22.1646559 79.89872046 -20.03757672 78.31400952 -17.546875 75.7578125 C-16.82886719 75.02884766 -16.11085938 74.29988281 -15.37109375 73.54882812 C-14.25927734 72.40510742 -14.25927734 72.40510742 -13.125 71.23828125 C-8.31790964 66.31592319 -3.47480174 61.56486769 1.74511719 57.08081055 C4.67807382 54.498666 7.39543869 51.71945835 10.125 48.92578125 C14.26023778 44.73788814 18.4300141 40.67858679 22.94140625 36.890625 C24.9319598 35.15870486 26.76647137 33.29772022 28.625 31.42578125 C27.59616699 31.41643555 26.56733398 31.40708984 25.50732422 31.39746094 C21.67144288 31.35743356 17.83635288 31.29164071 14.00097656 31.21826172 C12.34450486 31.19012563 10.68790073 31.16887455 9.03125 31.15478516 C6.64254324 31.13325234 4.25541614 31.0865537 1.8671875 31.03515625 C1.13257294 31.03392761 0.39795837 31.03269897 -0.35891724 31.03143311 C-5.48954743 30.88696235 -8.40432667 29.63033952 -12.375 26.42578125 C-16.42328674 21.93984189 -17.74605299 18.60220361 -17.65625 12.484375 C-17.05506316 8.08402135 -14.26223189 5.32312317 -11.25390625 2.28051758 C-7.49303614 -0.14242427 -4.32507292 -0.09730656 0 0 Z " fill="#018575" transform="translate(351.375,101.57421875)"/>
<path d="M0 0 C33.66 0 67.32 0 102 0 C104.25032082 14.62708531 104.25032082 14.62708531 104.77783203 19.92016602 C104.89780548 21.10751846 105.01777893 22.29487091 105.14138794 23.51820374 C105.26230804 24.75098557 105.38322815 25.9837674 105.5078125 27.25390625 C105.63815887 28.55778793 105.76850525 29.86166962 105.90280151 31.20506287 C106.17548522 33.93508268 106.44585337 36.66531777 106.71435547 39.39575195 C107.05801635 42.88953489 107.40658089 46.38280758 107.75671577 49.875947 C108.09255662 53.23088837 108.42512136 56.58615102 108.7578125 59.94140625 C108.88278107 61.19240616 109.00774963 62.44340607 109.13650513 63.73231506 C109.25017426 64.89129807 109.36384338 66.05028107 109.48095703 67.24438477 C109.58151398 68.26218521 109.68207092 69.27998566 109.78567505 70.32862854 C109.96361073 72.54643983 110 74.77506224 110 77 C111.89890991 76.9685791 111.89890991 76.9685791 113.83618164 76.93652344 C118.55302528 76.86387859 123.26981988 76.81811125 127.98706055 76.78027344 C130.02490568 76.76021368 132.06269366 76.73295901 134.1003418 76.69824219 C137.03709047 76.64947566 139.97307518 76.62697459 142.91015625 76.609375 C144.26682152 76.57840729 144.26682152 76.57840729 145.65089417 76.54681396 C151.63421932 76.54471287 155.0885973 77.53348412 160 81 C162.82046299 84.42838233 163.87859741 88.15018187 164.5 92.5 C163.87859741 96.84981813 162.82046299 100.57161767 160 104 C154.63257158 107.65570734 150.88186291 108.58248077 144.46069336 108.50793457 C143.62660666 108.51417453 142.79251997 108.5204145 141.93315792 108.52684355 C139.1517615 108.54273681 136.37124592 108.53018384 133.58984375 108.51757812 C131.59033702 108.52300087 129.59083429 108.53012439 127.59133911 108.53881836 C122.16986905 108.55703636 116.74870386 108.54999036 111.32722855 108.53730202 C105.65035437 108.52716653 99.97350608 108.53656923 94.29663086 108.54284668 C84.76378702 108.55012147 75.23106719 108.54053974 65.69824219 108.52148438 C54.6810522 108.49971603 43.66415833 108.50676752 32.64697552 108.52879 C23.18350791 108.54694873 13.72012938 108.54949997 4.25664997 108.53903532 C-1.39357544 108.53280303 -7.04366173 108.53195759 -12.69387817 108.54518127 C-18.00619475 108.55674595 -23.31812999 108.54870246 -28.63040543 108.52560425 C-30.57865898 108.5203205 -32.52694469 108.5218252 -34.47518539 108.53065491 C-37.1374529 108.54160718 -39.79850314 108.52785093 -42.46069336 108.50793457 C-43.22928208 108.51685746 -43.99787081 108.52578034 -44.7897501 108.53497362 C-50.26493293 108.45567767 -53.46524546 107.08858064 -58 104 C-60.82046299 100.57161767 -61.87859741 96.84981813 -62.5 92.5 C-61.87859741 88.15018187 -60.82046299 84.42838233 -58 81 C-52.21034451 76.91360474 -47.8913191 76.45002055 -40.91015625 76.609375 C-39.4933683 76.61786469 -39.4933683 76.61786469 -38.04795837 76.62652588 C-35.05227444 76.64878929 -32.05781805 76.69896669 -29.0625 76.75 C-27.02280382 76.77007798 -24.98308876 76.78832647 -22.94335938 76.8046875 C-17.96177174 76.84862117 -12.98109348 76.9175788 -8 77 C-7.9528334 76.41076248 -7.90566681 75.82152496 -7.85707092 75.21443176 C-6.64198233 60.12479224 -5.27738165 45.05494059 -3.76782227 29.99194336 C-3.43042825 26.61675638 -3.09893603 23.24101872 -2.76757812 19.86523438 C-2.5524357 17.70569403 -2.33695455 15.5461874 -2.12109375 13.38671875 C-2.02316025 12.38380295 -1.92522675 11.38088715 -1.82432556 10.34757996 C-1.73075272 9.42423355 -1.63717987 8.50088715 -1.54077148 7.54956055 C-1.41991432 6.33576973 -1.41991432 6.33576973 -1.2966156 5.09745789 C-1 3 -1 3 0 0 Z " fill="#292929" transform="translate(205,381)"/>
<path d="M0 0 C0 37.29 0 74.58 0 113 C-48.84 113 -97.68 113 -148 113 C-148 89.57 -148 66.14 -148 42 C-144.474827 42.7050346 -142.19341975 43.20752429 -139.07788086 44.62304688 C-138.34198227 44.95429565 -137.60608368 45.28554443 -136.84788513 45.62683105 C-136.06148148 45.98716431 -135.27507782 46.34749756 -134.46484375 46.71875 C-133.63151016 47.0955188 -132.79817657 47.4722876 -131.93959045 47.86047363 C-129.26998367 49.06877044 -126.60369851 50.28420382 -123.9375 51.5 C-122.20269354 52.28694257 -120.46766927 53.07340519 -118.73242188 53.859375 C-117.8741983 54.24851074 -117.01597473 54.63764648 -116.13174438 55.03857422 C-114.39338403 55.82630663 -112.65459261 56.61308843 -110.91537476 57.39892578 C-106.41968675 59.43348522 -101.93923384 61.49443418 -97.47705078 63.6015625 C-96.57982803 64.0195813 -95.68260529 64.4376001 -94.75819397 64.86828613 C-93.05427263 65.66245332 -91.35503684 66.46678399 -89.66160583 67.28308105 C-84.91644338 69.47837067 -81.34063619 70.54270515 -76 70 C-71.15524502 68.16948804 -68.16949724 65.47120238 -64.625 61.75 C-61.6867129 58.6817002 -58.76962085 55.77087715 -55.52832031 53.02612305 C-50.49959061 48.64695399 -45.82631409 43.92407312 -41.14068985 39.18528938 C-39.53768243 37.56466763 -37.93096443 35.94780739 -36.32321167 34.33189392 C-31.75898035 29.74338186 -27.20068102 25.14900822 -22.64648438 20.55053711 C-19.84691951 17.72427042 -17.04256668 14.90282959 -14.23516464 12.08434868 C-13.16871037 11.01167792 -12.10415845 9.93711241 -11.04153824 8.86064339 C-9.56488797 7.36488533 -8.08227947 5.87528917 -6.59814453 4.38696289 C-5.75623566 3.53759659 -4.91432678 2.68823029 -4.04690552 1.81312561 C-2 0 -2 0 0 0 Z " fill="#FEE8CA" transform="translate(256,174)"/>
<path d="M0 0 C2.21165738 13.15062716 4.48662494 28.63033285 -3.68209839 40.11045647 C-10.23170523 48.34119155 -18.11632955 55.38026393 -25.95672607 62.34960938 C-29.37889599 65.42779381 -32.70140757 68.60994747 -36.03515625 71.78320312 C-44.9747012 80.24758176 -54.06519172 88.54273471 -63.40454102 96.56562805 C-65.08525658 98.07664857 -66.6304149 99.67510674 -68.1875 101.3125 C-71.87994754 104.84083876 -74.15070418 105.86762549 -79.20263672 106.22924805 C-83.43969071 105.97345573 -86.56606503 104.77533501 -90.3203125 102.95703125 C-91.0094725 102.63675964 -91.69863251 102.31648804 -92.40867615 101.98651123 C-94.65326878 100.94046006 -96.8888749 99.87651439 -99.125 98.8125 C-100.67890692 98.08501181 -102.23352179 97.35903399 -103.78881836 96.63452148 C-106.16955923 95.52524096 -108.54979978 94.41500771 -110.92778015 93.29981995 C-118.76412217 89.62616334 -126.65678473 86.08374927 -134.5625 82.5625 C-136.93910872 81.50198681 -139.31528381 80.44050908 -141.69140625 79.37890625 C-142.67310791 78.9413501 -143.65480957 78.50379395 -144.66625977 78.05297852 C-146.12328726 77.39557088 -147.57028285 76.71485858 -149 76 C-149 65.11 -149 54.22 -149 43 C-138.88600519 46.3713316 -138.88600519 46.3713316 -133.9453125 48.71484375 C-132.84840088 49.23095215 -131.75148926 49.74706055 -130.62133789 50.27880859 C-129.46754639 50.82617676 -128.31375488 51.37354492 -127.125 51.9375 C-124.64869413 53.09839466 -122.16998678 54.25412758 -119.69140625 55.41015625 C-119.06102951 55.70458618 -118.43065277 55.99901611 -117.78117371 56.30236816 C-115.85442639 57.2022463 -113.92732243 58.10135432 -112 59 C-111.04392853 59.445784 -111.04392853 59.445784 -110.06854248 59.90057373 C-105.74299551 61.91402249 -101.40539865 63.89925688 -97.0625 65.875 C-95.92635254 66.40472412 -94.79020508 66.93444824 -93.61962891 67.48022461 C-92.56050293 67.95854736 -91.50137695 68.43687012 -90.41015625 68.9296875 C-89.02002319 69.56753174 -89.02002319 69.56753174 -87.60180664 70.21826172 C-84.52422965 71.14294986 -83.06335946 70.89524397 -80 70 C-78.05803728 68.62357151 -78.05803728 68.62357151 -76.34643555 66.78466797 C-75.67190842 66.10661102 -74.99738129 65.42855408 -74.30241394 64.72994995 C-73.58773453 63.99148834 -72.87305511 63.25302673 -72.13671875 62.4921875 C-71.3859053 61.73334259 -70.63509186 60.97449768 -69.86152649 60.19265747 C-67.46056267 57.76270294 -65.07358823 55.31955546 -62.6875 52.875 C-60.30965889 50.45443451 -57.92895466 48.03675764 -55.54560852 45.62161255 C-54.06477569 44.11936024 -52.58748573 42.61360405 -51.11442566 41.10372925 C-47.18145082 37.09608189 -43.13937216 33.31997613 -38.88398743 29.65765381 C-36.01422231 27.13264912 -33.34373978 24.4304252 -30.671875 21.69921875 C-29.53137861 20.54609675 -28.39074989 19.39310561 -27.25 18.24023438 C-25.48831361 16.4536138 -23.72830396 14.66539612 -21.97070312 12.87475586 C-20.25047729 11.12435479 -18.52410188 9.38020785 -16.796875 7.63671875 C-16.27389832 7.10028244 -15.75092163 6.56384613 -15.21209717 6.01115417 C-9.94965849 0.71275289 -7.42504376 -0.08918416 0 0 Z " fill="#02AB5E" transform="translate(256,139)"/>
<path d="M0 0 C21.91391186 -0.11576884 43.82775001 -0.20498524 65.74190617 -0.25906086 C75.9171547 -0.28483705 86.09220968 -0.31997648 96.26733398 -0.37719727 C105.13649435 -0.42705004 114.00551453 -0.45929527 122.87481111 -0.47044247 C127.57064349 -0.47695805 132.26607485 -0.49225932 136.96177864 -0.52865028 C141.38346892 -0.5626394 145.80459377 -0.57304712 150.22640228 -0.56553841 C151.84733848 -0.56691166 153.46829399 -0.57682708 155.08911705 -0.59602737 C168.85747101 -0.75109927 168.85747101 -0.75109927 173.3981781 2.35578918 C177.20380162 6.22341397 178.79531903 9.08964424 179.375 14.5 C178.79991904 19.86742233 177.0462092 23.29974624 173 26.8125 C168.59595491 30.02378288 165.62940563 30.12425312 160.29927063 30.12025452 C159.61475411 30.12110894 158.93023759 30.12196337 158.22497815 30.12284368 C155.92640756 30.12449359 153.6279096 30.1189851 151.3293457 30.11352539 C149.68360394 30.11324339 148.03786205 30.11340151 146.39212036 30.1139679 C141.91928919 30.11425536 137.44648471 30.10836686 132.97365975 30.10139394 C128.30114136 30.09515192 123.62862238 30.09455593 118.95610046 30.09336853 C110.10574423 30.09025773 101.25540031 30.0820477 92.4050495 30.07201904 C82.33020353 30.06085014 72.25535697 30.05534549 62.18050635 30.05032361 C41.45366383 30.03986489 20.72683312 30.02206936 0 30 C0 20.1 0 10.2 0 0 Z " fill="#FE9100" transform="translate(256,288)"/>
<path d="M0 0 C33.66 0 67.32 0 102 0 C102 0.33 102 0.66 102 1 C85.17 1 68.34 1 51 1 C51 26.08 51 51.16 51 77 C31.53 77 12.06 77 -8 77 C-5.68809472 49.25713663 -5.68809472 49.25713663 -4.74609375 39.82421875 C-4.58742577 38.22112602 -4.58742577 38.22112602 -4.42555237 36.58564758 C-4.20730609 34.38764694 -3.98807789 32.18974356 -3.76782227 29.99194336 C-3.43042825 26.61675638 -3.09893603 23.24101872 -2.76757812 19.86523438 C-2.5524357 17.70569403 -2.33695455 15.5461874 -2.12109375 13.38671875 C-2.02316025 12.38380295 -1.92522675 11.38088715 -1.82432556 10.34757996 C-1.73075272 9.42423355 -1.63717987 8.50088715 -1.54077148 7.54956055 C-1.46020004 6.74036667 -1.3796286 5.93117279 -1.2966156 5.09745789 C-1 3 -1 3 0 0 Z " fill="#6F6E6E" transform="translate(205,381)"/>
<path d="M0 0 C16.83 0 33.66 0 51 0 C52.40903652 2.81807305 52.44379504 5.45169501 52.75610352 8.58935547 C52.82452454 9.26597229 52.89294556 9.94258911 52.96343994 10.63970947 C53.18913697 12.88183319 53.40911498 15.12447775 53.62890625 17.3671875 C53.78412998 18.92419263 53.93964639 20.48116861 54.09544373 22.03811646 C54.42146907 25.30463259 54.74482776 28.57139804 55.06616211 31.83837891 C55.47795528 36.024164 55.89493927 40.2094109 56.31375217 44.39449883 C56.63533171 47.61138272 56.95484483 50.82846909 57.27366447 54.04562759 C57.4266926 55.58863147 57.58019944 57.13158795 57.7341938 58.6744957 C57.94921813 60.83342458 58.16163012 62.99259458 58.37329102 65.15185547 C58.49462906 66.38048309 58.6159671 67.60911072 58.74098206 68.87496948 C59 72 59 72 59 76 C39.53 76 20.06 76 0 76 C0 50.92 0 25.84 0 0 Z " fill="#444444" transform="translate(256,382)"/>
<path d="M0 0 C1.49382957 -0.00087616 1.49382957 -0.00087616 3.01783752 -0.00177002 C6.29163126 0.00100452 9.56450115 0.03206754 12.83813477 0.06347656 C15.11499026 0.07094117 17.3918522 0.07663306 19.66871643 0.08062744 C25.64799887 0.0958663 31.62688981 0.13513356 37.60601807 0.17944336 C43.71263331 0.22043348 49.81931209 0.23864648 55.92602539 0.25878906 C67.89822987 0.30162919 79.87004157 0.37196525 91.84204102 0.45410156 C91.84204102 10.68410156 91.84204102 20.91410156 91.84204102 31.45410156 C78.66379876 31.54451355 65.48576291 31.61788191 52.30728054 31.66135025 C46.18780928 31.68221412 40.06856144 31.71051048 33.94921875 31.75585938 C28.04237233 31.79935897 22.13574066 31.8232477 16.22874641 31.83361053 C13.97650841 31.84099444 11.72428199 31.85541347 9.47213554 31.87702179 C6.31449978 31.90610967 3.15774845 31.9100552 0 31.90820312 C-0.9286084 31.92258423 -1.8572168 31.93696533 -2.81396484 31.95178223 C-8.78136302 31.91397378 -12.25762583 30.91121236 -17.15795898 27.45410156 C-19.97842197 24.02571923 -21.03655639 20.30391969 -21.65795898 15.95410156 C-21.03655639 11.60428344 -19.97842197 7.88248389 -17.15795898 4.45410156 C-11.35602654 0.36092613 -6.99533996 -0.10833491 0 0 Z " fill="#444444" transform="translate(164.157958984375,457.5458984375)"/>
</svg>
